<?xml version="1.0" encoding="UTF-8"?>
<svg xmlns="http://www.w3.org/2000/svg">  

  <symbol id="dot" viewBox="0 0 100 100">
    <circle cx="50" cy="50" r="20"></circle>
  </symbol>

  <symbol id="message" viewBox="0 0 100 100">
    <path d="M50.5933908,69.9992347 C49.7385057,69.9992347 48.6465517,69.9556122 47.8635057,69.897449 C47.3927178,69.8592711 46.9334571,70.0576905 46.6350575,70.4281888 L39.7528736,79 L39.7528736,69.3230867 C39.7526162,68.7108746 39.3734877,68.1644021 38.8045977,67.95625 C29.2212644,64.2119898 23,55.5965561 23,45.9923469 C23,32.9855867 35.7514368,22 50.8376437,22 C65.816092,22 78,32.7602041 78,45.9923469 C78,59.2244898 65.7227011,69.9992347 50.5933908,69.9992347 Z" id="Shape"></path>
  </symbol>

  <symbol id="expand" viewBox="0 0 100 100">
    <polygon id="Shape" transform="translate(50.000000, 50.000000) rotate(90.000000) translate(-50.000000, -50.000000) " points="69.2 34.1941125 69.2 46.8 74 46.8 74 26 53.2 26 53.2 30.8 65.8058875 30.8 30.8 65.8058875 30.8 53.2 26 53.2 26 74 46.8 74 46.8 69.2 34.1941125 69.2"></polygon>
  </symbol>

  <symbol id="link" viewBox="0 0 100 100">
    <path d="M27,72.6 C30.2,75.8 34.5,77.6 39,77.6 C43.5,77.6 47.8,75.8 51,72.6 L56.7,66.9 C57.9,65.7 57.9,63.8 56.7,62.7 C55.5,61.5 53.6,61.5 52.5,62.7 L46.8,68.4 C44.7,70.5 42,71.6 39,71.6 C36.1,71.6 33.3,70.5 31.2,68.4 C29.1,66.3 28,63.6 28,60.6 C28,57.6 29.1,54.9 31.2,52.8 L36.9,47.1 C38.1,45.9 38.1,44 36.9,42.9 C35.7,41.7 33.8,41.7 32.7,42.9 L27,48.6 C23.8,51.8 22,56.1 22,60.6 C22,65.1 23.8,69.4 27,72.6 Z" id="Shape"></path>
    <path d="M62.7,52.5 C61.5,53.7 61.5,55.6 62.7,56.7 C63.3,57.3 64.1,57.6 64.8,57.6 C65.5,57.6 66.3,57.3 66.9,56.7 L72.6,51 C75.8,47.8 77.6,43.5 77.6,39 C77.6,34.5 75.8,30.2 72.6,27 C69.4,23.8 65.1,22 60.6,22 C56.1,22 51.8,23.8 48.6,27 L42.9,32.7 C41.7,33.9 41.7,35.8 42.9,36.9 C44.1,38.1 46,38.1 47.1,36.9 L52.8,31.2 C54.9,29.1 57.6,28 60.6,28 C63.5,28 66.3,29.1 68.4,31.2 C70.5,33.3 71.6,36 71.6,39 C71.6,42 70.5,44.7 68.4,46.8 L62.7,52.5 Z" id="Shape"></path>
    <path d="M55.1,40.9 L40.9,55.1 C39.7,56.3 39.7,58.2 40.9,59.3 C41.5,59.9 42.3,60.2 43,60.2 C43.7,60.2 44.5,59.9 45.1,59.3 L59.3,45.1 C60.5,43.9 60.5,42 59.3,40.9 C58.1,39.7 56.2,39.7 55.1,40.9 Z" id="Shape"></path>
  </symbol>
  <symbol id="dashboard" viewBox="0 0 100 100">
    <path d="M47,41.5 L14,41.5 L14,14 L47,14 L47,41.5 Z M18.5,37 L42.5,37 L42.5,18.5 L18.5,18.5 L18.5,37 Z M47,87 L14,87 L14,48 L47,48 L47,87 Z M18.5,82.5 L42.5,82.5 L42.5,53 L18.5,53 L18.5,82.5 Z M87,53 L54,53 L54,14 L87,14 L87,53 Z M58.5,48 L82.5,48 L82.5,18.5 L58.5,18.5 L58.5,48 Z M87,87 L54,87 L54,59.5 L87,59.5 L87,87 Z M58.5,82.5 L82.5,82.5 L82.5,64 L58.5,64 L58.5,82.5 Z" id="Shape"></path>
  </symbol>

  <symbol id="minus" viewBox="0 0 100 100">
    <path d="M25.2941176,45 C22.3702647,45 20,47.3701412 20,50.2940735 C20,53.2178382 22.3702647,55.5881912 25.2941176,55.5881912 L74.7058824,55.5881912 C77.6297353,55.5881912 80,53.2178382 80,50.2940735 C80,47.3701412 77.6297353,45 74.7058824,45 L25.2941176,45 Z" id="Shape"></path>
  </symbol>

  <symbol id="power" viewBox="0 0 100 100">
    <path d="M63.354091,43.9517913 L54.224091,43.9517913 L54.584091,24.5217913 C54.5936173,23.8627298 54.1717896,23.2746712 53.5444462,23.0724507 C52.9171029,22.8702301 52.2312545,23.1012356 51.854091,23.6417913 L33.264091,50.4417913 C32.9490057,50.8999237 32.9131922,51.4947642 33.1710351,51.9873908 C33.4288779,52.4800175 33.9380701,52.7895996 34.494091,52.7917913 L45.344091,52.7917913 L45.344091,73.9517913 C45.3433343,74.6313683 45.7995495,75.2265524 46.4559859,75.4023836 C47.1124223,75.5782147 47.805059,75.2907588 48.144091,74.7017913 L64.654091,46.2217913 C64.9325098,45.7563759 64.9380183,45.1769183 64.6684978,44.706294 C64.3989773,44.2356697 63.8964076,43.9471821 63.354091,43.9517913 Z" id="Shape"></path>
    <path d="M49.5,17 C50.3284271,17 51,16.3284271 51,15.5 L51,14.5 C51,13.6715729 50.3284271,13 49.5,13 C48.6715729,13 48,13.6715729 48,14.5 L48,15.5 C48,16.3284271 48.6715729,17 49.5,17 L49.5,17 Z" id="Shape"></path>
    <path d="M48,10.71 C48,11.5384271 48.6715729,12.21 49.5,12.21 C50.3284271,12.21 51,11.5384271 51,10.71 L51,6.5 L51,6.5 L51,5.5 C51,4.67157288 50.3284271,4 49.5,4 C48.6715729,4 48,4.67157288 48,5.5 L48,6.5 L48,6.5 L48,10.7 L48,10.71 Z" id="Shape"></path>
    <path d="M49.5,86 C50.3284271,86 51,85.3284271 51,84.5 L51,83.5 C51,82.6715729 50.3284271,82 49.5,82 C48.6715729,82 48,82.6715729 48,83.5 L48,84.5 C48,85.3284271 48.6715729,86 49.5,86 L49.5,86 Z" id="Shape"></path>
    <path d="M49.5,87 C48.6715729,87 48,87.6715729 48,88.5 L48,92.71 L48,92.71 L48,93.71 C48,94.5384271 48.6715729,95.21 49.5,95.21 C50.3284271,95.21 51,94.5384271 51,93.71 L51,92.71 L51,92.71 L51,88.5 C51,87.6715729 50.3284271,87 49.5,87 L49.5,87 Z" id="Shape"></path>
    <path d="M84.5,48 L83.5,48 C82.6715729,48 82,48.6715729 82,49.5 C82,50.3284271 82.6715729,51 83.5,51 L84.5,51 C85.3284271,51 86,50.3284271 86,49.5 C86,48.6715729 85.3284271,48 84.5,48 L84.5,48 Z" id="Shape"></path>
    <path d="M93.71,48 L88.5,48 C87.6715729,48 87,48.6715729 87,49.5 C87,50.3284271 87.6715729,51 88.5,51 L93.71,51 C94.5384271,51 95.21,50.3284271 95.21,49.5 C95.21,48.6715729 94.5384271,48 93.71,48 L93.71,48 Z" id="Shape"></path>
    <path d="M15.5,48 L14.5,48 C13.6715729,48 13,48.6715729 13,49.5 C13,50.3284271 13.6715729,51 14.5,51 L15.5,51 C16.3284271,51 17,50.3284271 17,49.5 C17,48.6715729 16.3284271,48 15.5,48 L15.5,48 Z" id="Shape"></path>
    <path d="M10.71,48 L5.5,48 C4.67157288,48 4,48.6715729 4,49.5 C4,50.3284271 4.67157288,51 5.5,51 L10.71,51 C11.5384271,51 12.21,50.3284271 12.21,49.5 C12.21,48.6715729 11.5384271,48 10.71,48 L10.71,48 Z" id="Shape"></path>
    <path d="M73.4399287,26.6925848 C73.8544034,26.6978239 74.2525698,26.531318 74.5399287,26.2325848 L75.2499287,25.5225848 C75.8006464,24.9315653 75.7843965,24.0105653 75.2131723,23.4393412 C74.6419482,22.868117 73.7209482,22.851867 73.1299287,23.4025848 L72.4399287,24.1325848 C72.0183433,24.5537371 71.8860371,25.1845049 72.1028577,25.7395656 C72.3196783,26.2946264 72.8445017,26.6687029 73.4399287,26.6925848 L73.4399287,26.6925848 Z" id="Shape"></path>
    <path d="M76.480362,23.6725848 C76.8776178,23.6700731 77.2581036,23.5121356 77.540362,23.2325848 L80.540362,20.2325848 L80.540362,20.2325848 L81.250362,19.5225848 C81.8010797,18.9315653 81.7848298,18.0105653 81.2136056,17.4393412 C80.6423814,16.868117 79.7213815,16.851867 79.130362,17.4025848 L78.440362,18.0925848 L78.440362,18.0925848 L75.440362,21.0925848 C75.15108,21.3682676 74.9913464,21.7530802 75.000362,22.1525848 C74.9961804,22.5511673 75.1551458,22.9341296 75.440362,23.2125848 C75.7119364,23.4982984 76.0862694,23.6638688 76.480362,23.6725848 L76.480362,23.6725848 Z" id="Shape"></path>
    <path d="M24.1874569,72.6000587 L23.4774569,73.3100587 C23.0761505,73.6839998 22.9109585,74.2471698 23.0466858,74.7786365 C23.1824131,75.3101032 23.5974124,75.7251025 24.1288791,75.8608298 C24.6603458,75.996557 25.2235157,75.831365 25.5974569,75.4300587 L26.2874569,74.7000587 C26.7569979,74.347903 26.9780139,73.7542453 26.8530812,73.1807698 C26.7281485,72.6072942 26.2802213,72.1593671 25.7067458,72.0344344 C25.1332703,71.9095017 24.5396126,72.1305177 24.1874569,72.6000587 L24.1874569,72.6000587 Z" id="Shape"></path>
    <path d="M21.1574569,76.4537382 L18.1574569,79.4537382 L18.1574569,79.4537382 L17.4774569,80.1337382 C17.0761505,80.5076794 16.9109585,81.0708493 17.0466858,81.6023161 C17.1824131,82.1337828 17.5974124,82.5487821 18.1288791,82.6845093 C18.6603458,82.8202366 19.2235157,82.6550446 19.5974569,82.2537382 L20.3074569,81.5437382 L20.3074569,81.5437382 L23.3074569,78.5437382 C23.5916941,78.2646209 23.7504784,77.882095 23.7474569,77.4837382 C23.7497716,77.0825843 23.5913034,76.6972184 23.3074569,76.4137382 C22.6965615,75.8469456 21.7468468,75.8646147 21.1574569,76.4537382 L21.1574569,76.4537382 Z" id="Shape"></path>
    <path d="M75.1100157,72.9900157 L74.4000157,72.3000157 C73.8028353,71.8521304 72.9671935,71.9115176 72.4393556,72.4393556 C71.9115176,72.9671935 71.8521304,73.8028353 72.3000157,74.4000157 L73.0100157,75.1100157 C73.608886,75.5917403 74.4749766,75.542873 75.0158579,74.9968405 C75.5567392,74.4508079 75.597395,73.5842931 75.1100157,72.9900157 Z" id="Shape"></path>
    <path d="M80.5600423,79.4191154 L80.5600423,79.4191154 L77.5600423,76.4191154 C76.9638522,75.8602949 76.0362325,75.8602949 75.4400423,76.4191154 C75.1561958,76.7025956 74.9977276,77.0879614 75.0000423,77.4891154 C74.9970208,77.8874722 75.1558051,78.2699981 75.4400423,78.5491154 L78.4400423,81.5491154 L78.4400423,81.5491154 L79.1500423,82.2591154 C79.7410619,82.8098331 80.6620618,82.7935831 81.2332859,82.222359 C81.8045101,81.6511348 81.8207601,80.7301349 81.2700423,80.1391154 L80.5600423,79.4191154 Z" id="Shape"></path>
    <path d="M25.5225848,23.4025848 C24.9315653,22.851867 24.0105653,22.868117 23.4393412,23.4393412 C22.868117,24.0105653 22.851867,24.9315653 23.4025848,25.5225848 L24.1125848,26.2125848 C24.4647405,26.6821257 25.0583981,26.9031417 25.6318737,26.7782091 C26.2053492,26.6532764 26.6532764,26.2053492 26.7782091,25.6318737 C26.9031417,25.0583981 26.6821257,24.4647405 26.2125848,24.1125848 L25.5225848,23.4025848 Z" id="Shape"></path>
    <path d="M18.1125848,20.2325848 L18.1125848,20.2325848 L21.1125848,23.2325848 C21.6982199,23.8174915 22.6469497,23.8174915 23.2325848,23.2325848 C23.8174915,22.6469497 23.8174915,21.6982199 23.2325848,21.1125848 L20.2325848,18.1125848 L20.2325848,18.1125848 L19.5225848,17.4025848 C18.9315653,16.851867 18.0105653,16.868117 17.4393412,17.4393412 C16.868117,18.0105653 16.851867,18.9315653 17.4025848,19.5225848 L18.1125848,20.2325848 Z" id="Shape"></path>
  </symbol>
  <symbol id="star" viewBox="0 0 100 100">
    <polygon id="Shape" points="50.5 70.9840157 30.1481348 81.6629412 34.0946942 59.066954 17.612005 43.0485658 40.3627592 39.7210745 50.5 19.1370588 60.6372408 39.7210745 83.387995 43.0485658 66.9053058 59.066954 70.8518652 81.6629412"></polygon>
  </symbol>
  <symbol id="log-out" viewBox="0 0 100 100">
    <polygon id="Shape" points="55.1219512 34.02 55.1219512 16 15 16 15 84 55.1219512 84 55.1219512 66.1075 51.7073171 66.1075 51.7073171 80.6 18.4146341 80.6 18.4146341 19.4 51.7073171 19.4 51.7073171 34.02"></polygon>
    <polygon id="Shape" points="62.5829268 32.8555 77.7780488 47.9855 35.4878049 47.9855 35.4878049 51.3855 77.7780488 51.3855 62.5829268 66.5155 64.9987805 68.921 84.3170732 49.6855 64.9987805 30.45"></polygon>
  </symbol>

  <symbol id="revert" viewBox="0 0 100 100">
    <path d="M27.6197183,50.9879518 L27.6197183,53.7710843 C27.6197183,66.2873207 37.8635694,76.4337349 50.5,76.4337349 C63.1364306,76.4337349 73.3802817,66.2873207 73.3802817,53.7710843 C73.3802817,41.254848 63.1364306,31.1084337 50.5,31.1084337 L49.6971831,31.1084337 L56.1197183,37.4301205 L52.1056338,41.4060241 L39.2605634,28.6831325 L52.1056338,16 L56.1197183,19.9361446 L50.4116901,25.5421687 L50.5,25.5421687 C66.2401154,25.5421687 79,38.1806847 79,53.7710843 C79,69.361484 66.2401154,82 50.5,82 C34.7598846,82 22,69.361484 22,53.7710843 L22,50.9879518 L27.6197183,50.9879518 Z" id="Shape"></path>
  </symbol>

  <symbol id="play" viewBox="0 0 100 100">
    <path d="M50,18 C32.3261538,18 18,32.3261538 18,50 C18,67.6738462 32.3261538,82 50,82 C67.6738462,82 82,67.6738462 82,50 C82,32.3261538 67.6738462,18 50,18 Z M50,77.0769231 C35.0732308,77.0769231 22.9230769,64.9292308 22.9230769,50 C22.9230769,35.0707692 35.0732308,22.9230769 50,22.9230769 C64.9292308,22.9230769 77.0769231,35.0707692 77.0769231,50 C77.0769231,64.9292308 64.9292308,77.0769231 50,77.0769231 Z" id="Shape"></path>
    <polygon id="Shape" points="67 51 40 36 40 66"></polygon>
  </symbol>

  <symbol id="user" viewBox="0 0 100 100">
    <path d="M79,73.019155 C79,70.1140679 77.1213575,67.6476278 74.5138141,66.7743425 C74.308515,66.7047603 60.9612909,63.2954526 59.0513637,59.5031643 C58.179956,57.7705105 59.0392284,55.5511148 59.9089663,54.0203052 C60.3070951,53.4844664 60.6966513,52.9174544 61.0709547,52.3224983 C63.3324733,48.7008814 65.0581434,43.9416779 65.2336051,38.0588046 C65.4980224,29.2084987 58.649561,22.020819 50.5193164,22 C42.3522203,22.020819 35.5038703,29.2084987 35.7699575,38.0590272 C35.9456419,43.9420119 37.6696421,48.7012154 39.9308267,52.3192699 C40.3050188,52.9176772 40.6946863,53.4848004 41.0929264,54.020528 C41.9627755,55.5513374 42.8219366,57.7708445 41.9505288,59.5033868 C40.0421603,63.2954526 26.6932663,66.7049829 26.4879672,66.7745653 C23.8805352,67.6480729 22,70.1142908 22,73.0196002 L22,79 L79,78.9997774 L79,73.019155 Z" id="Shape"></path>
  </symbol>

  <symbol id="logo" viewBox="0 0 100 100">
    <g id="Group" transform="translate(10.000000, 17.000000)">
      <path d="M11.0179641,10.5796087 L13.3643114,18.0548261 C14.7003593,18.0935652 16.1231138,18.1346957 17.6033533,18.1767826 L14.9001198,9.56521739 C13.6306587,9.89426087 12.3367665,10.2323913 11.0179641,10.5796087" id="Fill-35"></path>
      <path d="M69.2364072,10.2224907 C69.2364072,10.2224907 66.8205988,2.262795 63.840479,0.57405587 C60.8608383,-1.114205 49.4251497,1.45883848 49.4251497,1.45883848 C49.4251497,1.45883848 36.9346108,4.15144717 18.2035928,8.95509935 L21.177485,18.4299254 C29.782994,18.6690559 39.188024,18.905795 42.6601198,18.905795 C49.6665868,18.905795 52.1633533,20.1119689 54.9820359,23.9715341 C57.8007186,27.8306211 63.5990419,39.2476646 67.0620359,46.966795 C67.3734132,47.6602733 67.6871856,48.3489689 68.000479,49.0324037 L77.6210778,46.1991863 C73.4802395,22.8021863 69.2364072,10.2224907 69.2364072,10.2224907" id="Fill-37"></path>
      <path d="M1.86100202,13.145 C0.0890259711,13.6275652 -0.0431895977,14.7514783 0.0085469292,15.8787391 C0.109624774,18.0596087 4.19633136,17.8888696 4.19633136,17.8888696 C4.19633136,17.8888696 6.56040322,17.9620435 10.1230379,18.0677391 L8.055014,11.4782609 C6.03585232,12.0158261 3.97357687,12.5696522 1.86100202,13.145" id="Fill-39"></path>
      <path d="M79.1070659,56.4347826 L72.3353293,58.4291304 C73.3949701,60.5746087 74.0881437,61.93 74.0881437,61.93 C74.0881437,61.93 75.9228743,66.0114783 78.6687425,65.7790435 C80.571497,65.6183478 79.5645509,59.4373043 79.5645509,59.4373043 C79.4141317,58.4071304 79.2598802,57.4348261 79.1070659,56.4347826" id="Fill-41"></path>
      <path d="M77.8217964,49.2608696 L68.9820359,51.8645217 C69.6368862,53.2562609 70.2687425,54.5767391 70.8526946,55.7819565 L78.525988,53.5216957 C78.2931737,52.0606087 78.057485,50.6521304 77.8217964,49.2608696" id="Fill-43"></path>
  </g>
  </symbol> 

  <symbol id="external-link" viewBox="0 0 100 100">
    <g id="Group" transform="translate(20.000000, 20.000000)">
        <rect id="Rectangle-path" transform="translate(39.835132, 19.900379) rotate(-45.000000) translate(-39.835132, -19.900379) " x="14.395376" y="18.415525" width="50.8795121" height="2.96970836"></rect>
        <polygon id="Shape" points="59.36 22.5539474 56.32 22.5539474 56.32 3.05 36.8 3.05 36.8 0 59.36 0"></polygon>
        <polygon id="Shape" points="54 60.5986842 0 60.5986842 0 6.42105263 26.96 6.42105263 26.96 9.47105263 2.96 9.47105263 2.96 57.6289474 50.96 57.6289474 50.96 33.55 54 33.55"></polygon>
    </g>
  </symbol>

  <symbol id="trash" viewBox="0 0 100 100">
    <path d="M59.8529412,25.804878 L59.8529412,18 L41.1470588,18 L41.1470588,25.804878 L28.6764706,25.804878 L24,25.804878 L24,28.9268293 L28.6764706,28.9268293 L28.6764706,74.195122 C28.6764706,78.4878049 32.1838235,82 36.4705882,82 L64.5294118,82 C68.8161765,82 72.3235294,78.4878049 72.3235294,74.195122 L72.3235294,28.9268293 L77,28.9268293 L77,25.804878 L72.3235294,25.804878 L59.8529412,25.804878 Z M39,34 L42,34 L42,72 L39,72 L39,34 Z M52,34 L52,72 L49,72 L49,34 L52,34 Z M62,72 L59,72 L59,34 L62,34 L62,72 Z M44,21 L56,21 L56,26 L44,26 L44,21 Z"></path>
  </symbol>

  <symbol id="caution" viewBox="0 0 100 100">
    <path d="M46.1228188,18.7141449 C48.2639829,15.0946649 51.7362295,15.0959052 53.8766601,18.7141449 L85.0712826,71.4463518 C87.2124467,75.0658319 85.5258114,78 81.3016578,78 L18.6978209,78 C14.4747507,78 12.7877658,75.0645915 14.9281963,71.4463518 L46.1228188,18.7141449 Z M50.5719887,57.6360561 L54.0704572,33.5809925 C54.359877,31.5909755 52.7730395,30 50.5301486,30 L49.57427,30 C47.3284283,30 45.7462238,31.6032649 46.0337263,33.5809925 L49.5306147,57.6360561 C49.8199036,59.6260731 50.2843562,59.6137835 50.5719887,57.6360561 Z M50.2418089,71.471992 C52.0322105,71.471992 53.4836178,70.0231872 53.4836178,68.235996 C53.4836178,66.4488048 52.0322105,65 50.2418089,65 C48.4514073,65 47,66.4488048 47,68.235996 C47,70.0231872 48.4514073,71.471992 50.2418089,71.471992 Z" id="Combined-Shape"></path>
  </symbol>

  <symbol id="download" viewBox="0 0 100 100">
    <g transform="translate(49.500000, 50.500000) rotate(-360.000000) translate(-49.500000, -50.500000) translate(26.000000, 22.000000)">
      <path d="M47,20.1176471 L33.5714286,20.1176471 L33.5714286,0 L13.4285714,0 L13.4285714,20.1176471 L0,20.1176471 L23.5,43.5882353 L47,20.1176471 Z M0,50.2941176 L0,57 L47,57 L47,50.2941176 L0,50.2941176 Z" id="Shape"></path>
    </g>
  </symbol>

  <symbol id="caret-left" viewBox="0 0 100 100">
    <path d="M28.6240459,40 L71.3759541,40 C71.907584,40 72.2177015,40.6768024 71.818979,41.0828838 L50.4208737,62.8307994 C50.1993612,63.0564002 49.8006388,63.0564002 49.5348238,62.8307994 L28.181021,41.0828838 C27.7822985,40.6768024 28.092416,40 28.6240459,40 Z" id="Shape" transform="translate(50.000000, 51.500000) rotate(-270.000000) translate(-50.000000, -51.500000) "></path>
  </symbol>

  <symbol id="arrow-left" viewBox="0 0 100 100">
    <path d="M92.5565611,43.2533333 L56.1085973,6.45333333 C52.8506787,3.18222222 47.3529412,3.18222222 43.8914027,6.45333333 L7.44343891,43.2533333 C4.18552036,46.5244444 4.18552036,52.0444444 7.44343891,55.52 C10.7013575,58.7911111 16.199095,58.7911111 19.6606335,55.52 L41.4479638,33.6444444 L41.4479638,87.4133333 C41.4479638,92.1155556 45.3167421,96 50,96 C54.6832579,96 58.5520362,92.1155556 58.5520362,87.4133333 L58.5520362,33.44 L80.3393665,55.3155556 C83.5972851,58.5866667 89.0950226,58.5866667 92.5565611,55.3155556 C95.8144796,52.0444444 95.8144796,46.5244444 92.5565611,43.2533333 Z" transform="rotate(-90 50 50)"/>
  </symbol>


  <symbol id="caret-down" viewBox="0 0 100 100">
     <path d="M28.6240459,40 L71.3759541,40 C71.907584,40 72.2177015,40.6768024 71.818979,41.0828838 L50.4208737,62.8307994 C50.1993612,63.0564002 49.8006388,63.0564002 49.5348238,62.8307994 L28.181021,41.0828838 C27.7822985,40.6768024 28.092416,40 28.6240459,40 Z" id="Shape"></path>
  </symbol>

  <symbol id="mail" viewBox="0 0 100 100">
    <path d="M20.4314484,31.0833333 C20.0414696,31.0833333 19.7333333,31.4078269 19.7333333,31.8108974 L19.7333333,33.948117 L50,55.4794308 L80.2666667,33.948117 L80.2666667,31.8108974 C80.2666667,31.4078269 79.9585304,31.0833333 79.5685516,31.0833333 L20.4314484,31.0833333 Z M19.7333333,37.5177647 L19.7333333,68.1891026 C19.7333333,68.5921731 20.0414696,68.9166667 20.4314484,68.9166667 L79.5685516,68.9166667 C79.9585304,68.9166667 80.2666667,68.5921731 80.2666667,68.1891026 L80.2666667,37.5177647 L50.8332341,58.4579327 C50.3340314,58.8149809 49.6659686,58.8149809 49.1667659,58.4579327 L19.7333333,37.5177647 Z"></path>
  </symbol>

  <symbol id="thin-arrow" viewBox="0 0 32 32">
    <path d="M16.2881288,6.94161752 L20.9529059,11.6063947 L22.0395338,10.5197669 L16.0630808,4.54331391 L15.5197669,4 L9,10.5197669 L10.0866278,11.6063947 L14.751405,6.94161752 L14.751405,28 L16.2881288,28 L16.2881288,6.94161752 Z" id="Shape" transform="translate(15.519767, 16.000000) rotate(-270.000000) translate(-15.519767, -16.000000) "></path>
  </symbol>

  <symbol id="spinner" viewBox="0 0 80 80">
      <path
      d="M40,72C22.4,72,8,57.6,8,40C8,22.4,
      22.4,8,40,8c17.6,0,32,14.4,32,32c0,1.1-0.9,2-2,2
      s-2-0.9-2-2c0-15.4-12.6-28-28-28S12,24.6,12,40s12.6,
      28,28,28c1.1,0,2,0.9,2,2S41.1,72,40,72z"></path>
  </symbol>

  <symbol id="search" viewBox="0 0 100 100">
    <path d="M82.6950308,79.6146221 L64.9670682,61.8866596 C69.2078949,56.9276518 71.5265524,50.6913128 71.5265524,44.0962464 C71.5265524,36.7692017 68.6727084,29.8814892 63.4922191,24.7009999 C58.3110036,19.5197845 51.422565,16.6666667 44.0962464,16.6666667 C36.7692017,16.6666667 29.8814892,19.5205106 24.7009999,24.7009999 C19.5197845,29.8814892 16.6666667,36.7692017 16.6666667,44.0962464 C16.6666667,51.4232911 19.5205106,58.3110036 24.7009999,63.4922191 C29.8814892,68.6734346 36.7692017,71.5265524 44.0962464,71.5265524 C50.6913128,71.5265524 56.9269256,69.2078949 61.8866596,64.9670682 L79.6146221,82.6950308 C80.0401571,83.1205658 80.5978549,83.3333333 81.1548265,83.3333333 C81.7117981,83.3333333 82.2694958,83.1205658 82.6950308,82.6950308 C83.5461008,81.8454132 83.5461008,80.4656921 82.6950308,79.6146221 Z M44.0962464,67.1702648 C37.9332506,67.1702648 32.1391485,64.7695503 27.7814086,60.4118104 C23.4229426,56.0533444 21.0229542,50.2592423 21.0229542,44.0962464 C21.0229542,37.9332506 23.4229426,32.1391485 27.7814086,27.7814086 C32.1391485,23.4236688 37.9325244,21.0229542 44.0962464,21.0229542 C50.2585161,21.0229542 56.0533444,23.4236688 60.4118104,27.7821348 C64.7695503,32.1391485 67.1702648,37.9332506 67.1702648,44.0962464 C67.1702648,50.2592423 64.7695503,56.0533444 60.4118104,60.4118104 C56.0533444,64.7695503 50.2585161,67.1702648 44.0962464,67.1702648 Z"></path>
  </symbol>

  <symbol id="logo-large" viewBox="0 0 200 42">
    <path d="M64.4329258,10.7464629 C64.4329258,9.76043668 63.6984279,9.1522853 62.0410771,9.1522853 L58.3059971,9.1522853 L58.3059971,12.382853 L62.1461718,12.382853 C63.5726638,12.382853 64.4329258,11.8797962 64.4329258,10.7886754 L64.4329258,10.7464629 Z M63.6140029,4.87106259 C63.6140029,3.90570597 62.8588355,3.36043668 61.4952256,3.36043668 L58.3059971,3.36043668 L58.3059971,6.46611354 L61.2859098,6.46611354 C62.7121106,6.46611354 63.6140029,6.00439592 63.6140029,4.91327511 L63.6140029,4.87106259 Z M62.1461718,15.2163319 L55.1581077,15.2163319 L55.1581077,0.527540029 L61.9781951,0.527540029 C64.9787773,0.527540029 66.8247744,2.01749636 66.8247744,4.3257933 L66.8247744,4.36800582 C66.8247744,6.0250655 65.9435517,6.94850073 64.8946434,7.53569141 C66.5939156,8.18663755 67.6428239,9.17295488 67.6428239,11.1452984 L67.6428239,11.1872198 C67.6428239,13.8728093 65.4611645,15.2163319 62.1461718,15.2163319 L62.1461718,15.2163319 Z" id="Fill-1" fill="#535452"></path>
    <path d="M81.8911499,7.87187773 C81.8911499,5.35368268 80.0445706,3.25557496 77.4434061,3.25557496 C74.840786,3.25557496 73.0364192,5.31147016 73.0364192,7.82966521 L73.0364192,7.87187773 C73.0364192,10.3894905 74.8824163,12.4881805 77.4847453,12.4881805 C80.0867831,12.4881805 81.8911499,10.4317031 81.8911499,7.91350801 L81.8911499,7.87187773 Z M77.4434061,15.4675109 C72.9100728,15.4675109 69.6579622,12.089345 69.6579622,7.91350801 L69.6579622,7.87187773 C69.6579622,3.69633188 72.9528675,0.2756623 77.4847453,0.2756623 C82.0169141,0.2756623 85.2698981,3.65441048 85.2698981,7.82966521 L85.2698981,7.87187773 C85.2698981,12.0474236 81.9752838,15.4675109 77.4434061,15.4675109 L77.4434061,15.4675109 Z" id="Fill-3" fill="#535452"></path>
    <path d="M99.7274527,7.87187773 C99.7274527,5.35368268 97.8808734,3.25557496 95.2797089,3.25557496 C92.6770888,3.25557496 90.872722,5.31147016 90.872722,7.82966521 L90.872722,7.87187773 C90.872722,10.3894905 92.7187191,12.4881805 95.321048,12.4881805 C97.9230859,12.4881805 99.7274527,10.4317031 99.7274527,7.91350801 L99.7274527,7.87187773 Z M95.2797089,15.4675109 C90.7463755,15.4675109 87.4942649,12.089345 87.4942649,7.91350801 L87.4942649,7.87187773 C87.4942649,3.69633188 90.7891703,0.2756623 95.321048,0.2756623 C99.8532169,0.2756623 103.106201,3.65441048 103.106201,7.82966521 L103.106201,7.87187773 C103.106201,12.0474236 99.8115866,15.4675109 95.2797089,15.4675109 L95.2797089,15.4675109 Z" id="Fill-5" fill="#535452"></path>
    <polygon id="Fill-7" fill="#535452" points="117.459214 15.2160116 117.459214 5.62620087 113.325298 11.9010189 113.240873 11.9010189 109.149753 5.68966521 109.149753 15.2160116 105.981194 15.2160116 105.981194 0.527510917 109.464163 0.527510917 113.325298 6.73857351 117.186143 0.527510917 120.669112 0.527510917 120.669112 15.2160116"></polygon>
    <polygon id="Fill-9" fill="#535452" points="124.195459 15.2160116 124.195459 0.527510917 135.274643 0.527510917 135.274643 3.40232897 127.405357 3.40232897 127.405357 6.38195051 134.330539 6.38195051 134.330539 9.25705968 127.405357 9.25705968 127.405357 12.3411936 135.379738 12.3411936 135.379738 15.2160116"></polygon>
    <path d="M147.235691,5.54247453 C147.235691,4.15761281 146.270917,3.44436681 144.696827,3.44436681 L141.486055,3.44436681 L141.486055,7.66183406 L144.759709,7.66183406 C146.333217,7.66183406 147.235691,6.82224163 147.235691,5.58468705 L147.235691,5.54247453 Z M147.172809,15.2161281 L144.02492,10.5154003 L141.486055,10.5154003 L141.486055,15.2161281 L138.254614,15.2161281 L138.254614,0.527336245 L144.969607,0.527336245 C148.431907,0.527336245 150.509345,2.353246 150.509345,5.37449782 L150.509345,5.41671033 C150.509345,7.78788937 149.228705,9.27755459 147.361456,9.970131 L150.950102,15.2161281 L147.172809,15.2161281 Z" id="Fill-11" fill="#535452"></path>
    <path d="M159.909753,4.30468705 L157.958079,9.06829694 L161.861135,9.06829694 L159.909753,4.30468705 Z M164.358079,15.2158952 L163.015429,11.9215721 L156.804076,11.9215721 L155.461426,15.2158952 L152.167103,15.2158952 L158.462591,0.422882096 L161.441921,0.422882096 L167.736827,15.2158952 L164.358079,15.2158952 Z" id="Fill-13" fill="#535452"></path>
    <polygon id="Fill-15" fill="#535452" points="180.306579 15.2160116 173.192751 5.8783115 173.192751 15.2160116 170.003523 15.2160116 170.003523 0.527510917 172.983435 0.527510917 179.865531 9.57147016 179.865531 0.527510917 183.055051 0.527510917 183.055051 15.2160116"></polygon>
    <path d="M193.65179,15.4677147 C189.0777,15.4677147 185.929811,12.2569432 185.929811,7.91371179 L185.929811,7.87208151 C185.929811,3.69595342 189.181921,0.275866084 193.631121,0.275866084 C196.27508,0.275866084 197.869258,0.989112082 199.401426,2.29042213 L197.366201,4.74515284 C196.232285,3.80104803 195.225881,3.25577875 193.526026,3.25577875 C191.17639,3.25577875 189.308268,5.33321689 189.308268,7.83016012 L189.308268,7.87208151 C189.308268,10.557671 191.154265,12.5300146 193.756885,12.5300146 C194.93214,12.5300146 195.981339,12.2362737 196.798806,11.6487918 L196.798806,9.55068413 L193.546696,9.55068413 L193.546696,6.75970888 L199.926026,6.75970888 L199.926026,13.1387482 C198.4154,14.4188064 196.337962,15.4677147 193.65179,15.4677147" id="Fill-17" fill="#535452"></path>
    <path d="M54.493508,30.7716157 L54.493508,30.7235808 C54.493508,25.9535662 58.0588646,22.0030568 62.9255313,22.0030568 C65.7191266,22.0030568 67.4780786,22.9666667 69.1165066,24.3637555 C69.2364483,24.4845706 69.3572635,24.6531295 69.3572635,24.8697234 C69.3572635,25.2068413 69.0440175,25.4959243 68.7068996,25.4959243 C68.5383406,25.4959243 68.3691994,25.4240175 68.2731295,25.3273654 C66.876623,24.0508006 65.2614847,23.1352256 62.9013683,23.1352256 C58.8544978,23.1352256 55.794818,26.4353712 55.794818,30.6755459 L55.794818,30.7235808 C55.794818,34.9873362 58.9022416,38.311936 62.9255313,38.311936 C65.2134498,38.311936 66.8271325,37.4933042 68.4183988,35.9754003 C68.5141776,35.8787482 68.6588646,35.7826783 68.8515866,35.7826783 C69.1645415,35.7826783 69.4539156,36.071179 69.4539156,36.384425 C69.4539156,36.5777293 69.3572635,36.7224163 69.2606114,36.8181951 C67.5508588,38.4080058 65.6952547,39.4441048 62.8774964,39.4441048 C58.0588646,39.4441048 54.493508,35.6135371 54.493508,30.7716157" id="Fill-19" fill="#535452"></path>
    <path d="M87.450393,30.7716157 L87.450393,30.7235808 C87.450393,26.5558952 84.4148763,23.1352256 80.2477729,23.1352256 C76.0800873,23.1352256 73.0923144,26.5078603 73.0923144,30.6755459 L73.0923144,30.7235808 C73.0923144,34.8912664 76.1281223,38.311936 80.2958079,38.311936 C84.4634934,38.311936 87.450393,34.9393013 87.450393,30.7716157 M71.7918777,30.7716157 L71.7918777,30.7235808 C71.7918777,26.1221252 75.1886754,22.0030568 80.2958079,22.0030568 C85.4029403,22.0030568 88.7511208,26.0743814 88.7511208,30.6755459 L88.7511208,30.7235808 C88.7511208,35.3244541 85.3549054,39.4441048 80.2477729,39.4441048 C75.1406405,39.4441048 71.7918777,35.3730713 71.7918777,30.7716157" id="Fill-21" fill="#535452"></path>
    <path d="M93.0165066,22.84623 C93.0165066,22.5085298 93.3050073,22.2200291 93.6427074,22.2200291 L93.7626492,22.2200291 C94.0284425,22.2200291 94.2205822,22.364425 94.3897234,22.5810189 L100.966143,32.2648617 L107.542271,22.5810189 C107.686958,22.364425 107.904134,22.2200291 108.168763,22.2200291 L108.289869,22.2200291 C108.626405,22.2200291 108.915488,22.5085298 108.915488,22.84623 L108.915488,38.624687 C108.915488,38.9618049 108.626405,39.251179 108.289869,39.251179 C107.952169,39.251179 107.663086,38.9618049 107.663086,38.624687 L107.663086,24.5079476 L101.47182,33.5175546 C101.327132,33.7347307 101.159156,33.8308006 100.94198,33.8308006 C100.725386,33.8308006 100.556827,33.7347307 100.411557,33.5175546 L94.2205822,24.5079476 L94.2205822,38.6494323 C94.2205822,38.9865502 93.9559534,39.251179 93.6188355,39.251179 C93.2811354,39.251179 93.0165066,38.9865502 93.0165066,38.6494323 L93.0165066,22.84623 Z" id="Fill-23" fill="#535452"></path>
    <path d="M113.928093,22.84623 C113.928093,22.5085298 114.216594,22.2200291 114.554294,22.2200291 L114.674236,22.2200291 C114.940029,22.2200291 115.132169,22.364425 115.30131,22.5810189 L121.877729,32.2648617 L128.453857,22.5810189 C128.598544,22.364425 128.815721,22.2200291 129.080349,22.2200291 L129.201456,22.2200291 C129.537991,22.2200291 129.827074,22.5085298 129.827074,22.84623 L129.827074,38.624687 C129.827074,38.9618049 129.537991,39.251179 129.201456,39.251179 C128.863755,39.251179 128.574672,38.9618049 128.574672,38.624687 L128.574672,24.5079476 L122.383406,33.5175546 C122.238719,33.7347307 122.070742,33.8308006 121.853566,33.8308006 C121.636972,33.8308006 121.468413,33.7347307 121.323144,33.5175546 L115.132169,24.5079476 L115.132169,38.6494323 C115.132169,38.9865502 114.86754,39.251179 114.530422,39.251179 C114.192722,39.251179 113.928093,38.9865502 113.928093,38.6494323 L113.928093,22.84623 Z" id="Fill-25" fill="#535452"></path>
    <path d="M134.839622,38.5287918 L134.839622,22.9183115 C134.839622,22.5811936 135.128122,22.2918195 135.465822,22.2918195 L146.354614,22.2918195 C146.667569,22.2918195 146.932198,22.5570306 146.932198,22.8702766 C146.932198,23.1835226 146.667569,23.4484425 146.354614,23.4484425 L136.092314,23.4484425 L136.092314,30.0728967 L145.27048,30.0728967 C145.583726,30.0728967 145.848064,30.3381077 145.848064,30.6513537 C145.848064,30.9643086 145.583726,31.2295197 145.27048,31.2295197 L136.092314,31.2295197 L136.092314,37.998952 L146.475138,37.998952 C146.788384,37.998952 147.053304,38.2635808 147.053304,38.5768268 C147.053304,38.8900728 146.788384,39.1549927 146.475138,39.1549927 L135.465822,39.1549927 C135.128122,39.1549927 134.839622,38.8659098 134.839622,38.5287918" id="Fill-27" fill="#535452"></path>
    <path d="M157.918457,31.0365357 C160.73738,31.0365357 162.832868,29.6152838 162.832868,27.1820961 L162.832868,27.1340611 C162.832868,24.8694323 161.050044,23.4481805 157.990946,23.4481805 L152.232868,23.4481805 L152.232868,31.0365357 L157.918457,31.0365357 Z M150.981048,22.9183406 C150.981048,22.5812227 151.269549,22.2921397 151.607249,22.2921397 L158.063726,22.2921397 C160.135051,22.2921397 161.79706,22.9425036 162.808996,23.9544396 C163.604047,24.7494905 164.08556,25.8813683 164.08556,27.0860262 L164.08556,27.1340611 C164.08556,29.9524017 161.989491,31.5663755 159.14786,31.9521106 L163.941164,38.1672489 C164.061689,38.311936 164.133595,38.4563319 164.133595,38.6010189 C164.133595,38.9381368 163.821223,39.2513828 163.483231,39.2513828 C163.242766,39.2513828 163.073624,39.1066958 162.92952,38.9142649 L157.749898,32.1692868 L152.232868,32.1692868 L152.232868,38.6248908 C152.232868,38.9620087 151.944367,39.2513828 151.607249,39.2513828 C151.269549,39.2513828 150.981048,38.9620087 150.981048,38.6248908 L150.981048,22.9183406 Z" id="Fill-29" fill="#535452"></path>
    <path d="M167.652082,30.7716157 L167.652082,30.7235808 C167.652082,25.9535662 171.217438,22.0030568 176.084105,22.0030568 C178.8777,22.0030568 180.636652,22.9666667 182.27508,24.3637555 C182.395022,24.4845706 182.515837,24.6531295 182.515837,24.8697234 C182.515837,25.2068413 182.202591,25.4959243 181.865473,25.4959243 C181.696914,25.4959243 181.527482,25.4240175 181.431703,25.3273654 C180.035197,24.0508006 178.420058,23.1352256 176.059942,23.1352256 C172.013071,23.1352256 168.953392,26.4353712 168.953392,30.6755459 L168.953392,30.7235808 C168.953392,34.9873362 172.060815,38.311936 176.084105,38.311936 C178.372023,38.311936 179.985706,37.4933042 181.576972,35.9754003 C181.672751,35.8787482 181.817438,35.7826783 182.01016,35.7826783 C182.323115,35.7826783 182.612489,36.071179 182.612489,36.384425 C182.612489,36.5777293 182.515837,36.7224163 182.419185,36.8181951 C180.709432,38.4080058 178.853828,39.4441048 176.03607,39.4441048 C171.217438,39.4441048 167.652082,35.6135371 167.652082,30.7716157" id="Fill-31" fill="#535452"></path>
    <path d="M186.178515,38.5287918 L186.178515,22.9183115 C186.178515,22.5811936 186.467016,22.2918195 186.804716,22.2918195 L197.693508,22.2918195 C198.006463,22.2918195 198.271092,22.5570306 198.271092,22.8702766 C198.271092,23.1835226 198.006463,23.4484425 197.693508,23.4484425 L187.431208,23.4484425 L187.431208,30.0728967 L196.609374,30.0728967 C196.92262,30.0728967 197.186958,30.3381077 197.186958,30.6513537 C197.186958,30.9643086 196.92262,31.2295197 196.609374,31.2295197 L187.431208,31.2295197 L187.431208,37.998952 L197.814032,37.998952 C198.126987,37.998952 198.392198,38.2635808 198.392198,38.5768268 C198.392198,38.8900728 198.126987,39.1549927 197.814032,39.1549927 L186.804716,39.1549927 C186.467016,39.1549927 186.178515,38.8659098 186.178515,38.5287918" id="Fill-33" fill="#535452"></path>
    <path d="M6.90937409,7.21540029 L8.33528384,11.7656186 C9.1472198,11.7891994 10.0118486,11.8142358 10.9114119,11.8398544 L9.26861718,6.59793304 C8.49714702,6.79822416 7.71082969,7.00404658 6.90937409,7.21540029" id="Fill-35" fill="#287EAF"></path>
    <path d="M42.0996507,6.89979622 C42.0996507,6.89979622 40.6315284,2.05467249 38.8204658,1.02672489 C37.0096943,-0.000931586608 30.0600582,1.5652984 30.0600582,1.5652984 C30.0600582,1.5652984 22.4693741,3.20430859 11.0862591,6.12832606 L12.8935371,11.8957205 C18.1232314,12.0412809 23.8388064,12.1853857 25.9488501,12.1853857 C30.2067831,12.1853857 31.7241048,12.9195924 33.4370597,15.2689374 C35.1500146,17.6179913 38.6737409,24.5676274 40.7782533,29.2663173 C40.9674818,29.6884425 41.1581659,30.1076565 41.348559,30.5236681 L47.1951383,28.7990684 C44.67869,14.557147 42.0996507,6.89979622 42.0996507,6.89979622" id="Fill-37" fill="#287EAF"></path>
    <path d="M1.33123726,8.71065502 C0.254381368,9.00439592 0.174032023,9.68852984 0.205473071,10.3747016 C0.266899563,11.7022125 2.75045124,11.5982824 2.75045124,11.5982824 C2.75045124,11.5982824 4.18713246,11.6428239 6.35219796,11.7071616 L5.0954294,7.69609898 C3.86835517,8.02331878 2.61508006,8.36043668 1.33123726,8.71065502" id="Fill-39" fill="#287EAF"></path>
    <path d="M48.2329549,35.1222707 L44.117671,36.3362445 C44.7616303,37.6422125 45.1828821,38.4672489 45.1828821,38.4672489 C45.1828821,38.4672489 46.2978748,40.9516739 47.9665793,40.8101892 C49.1229112,40.7123726 48.5109753,36.9499272 48.5109753,36.9499272 C48.4195633,36.322853 48.3258224,35.7310044 48.2329549,35.1222707" id="Fill-41" fill="#287EAF"></path>
    <path d="M47.5183406,30.6584279 L42.1462882,32.2432897 C42.5442504,33.0904512 42.9282387,33.8942358 43.283115,34.6278603 L47.9462882,33.2520233 C47.8048035,32.3626492 47.6615721,31.5052984 47.5183406,30.6584279" id="Fill-43" fill="#287EAF"></path>
  </symbol>

  <symbol id="plus" viewBox="0 0 100 100">
    <path d="M50,20.0000029 C47.0762353,20.0000029 44.7058824,22.3702676 44.7058824,25.2941206 L44.7058824,44.7058853 L25.2941176,44.7058853 C22.3702647,44.7058853 20,47.0760265 20,49.9999588 C20,52.9237235 22.3702647,55.2940765 25.2941176,55.2940765 L44.7058824,55.2940765 L44.7058824,74.7059294 C44.7058824,77.6297824 47.0762353,80.0000471 50,80.0000471 C52.9239412,80.0000471 55.2941176,77.6297824 55.2941176,74.7059294 L55.2941176,55.2940765 L74.7058824,55.2940765 C77.6297353,55.2940765 80,52.9237235 80,49.9999588 C80,47.0760265 77.6297353,44.7058853 74.7058824,44.7058853 L55.2941176,44.7058853 L55.2941176,25.2941206 C55.2941176,22.3702676 52.9239412,20.0000029 50,20.0000029 Z" id="Shape"></path>
  </symbol>

  <symbol id="share" viewBox="0 0 100 100">
    <path d="M88.3791526,42.0504892 L58.5290132,16.5 L58.5290132,28.7191457 C48.0995578,29.7666002 10.9900736,36.742693 10.7588474,83.144 C10.7588474,83.144 19.7558568,53.9123905 58.5290132,52.8395012 L58.5290132,67.6021345 L88.3791526,42.0504892 Z" id="Shape"></path>
  </symbol>

  <symbol id="ellipsis" viewBox="0 0 100 100">
    <path d="M50,85 C30.6695,85 15,69.3305 15,50 C15,30.6695 30.6695,15 50,15 C69.3305,15 85,30.6695 85,50 C85,69.3305 69.3305,85 50,85 Z M29.5,45 C26.464,45 24,47.464 24,50.5 C24,53.536 26.464,56 29.5,56 C32.536,56 35,53.536 35,50.5 C35,47.464 32.536,45 29.5,45 Z M50.5,45 C47.464,45 45,47.464 45,50.5 C45,53.536 47.464,56 50.5,56 C53.536,56 56,53.536 56,50.5 C56,47.464 53.536,45 50.5,45 Z M71.5,45 C68.464,45 66,47.464 66,50.5 C66,53.536 68.464,56 71.5,56 C74.536,56 77,53.536 77,50.5 C77,47.464 74.536,45 71.5,45 Z" id="Shape"></path>
  </symbol>

  <symbol id="check-circle" viewBox="0 0 100 100">
     <path d="M50,5 C25.2260638,5 5,25.2260638 5,50 C5,74.7739362 25.2260638,95 50,95 C74.7739362,95 95,74.7739362 95,50 C95,25.2260638 74.7739362,5 50,5 Z M73.5209983,43.2020674 L48.4337708,66.6948457 C47.4688774,67.5253984 46.2627607,68 45.056644,68 C43.8505273,68 42.6444106,67.5253984 41.6795172,66.5761953 L27.44734,52.4567983 C25.5175533,50.5583919 25.5175533,47.5921321 27.44734,45.6937257 C29.3771268,43.7953194 32.3924185,43.7953194 34.3222053,45.6937257 L45.2978673,56.4909117 L66.8873564,36.3203445 C68.8171431,34.5405886 71.8324349,34.5405886 73.7622216,36.4389949 C75.450785,38.4560516 75.450785,41.4223115 73.5209983,43.2020674 Z" id="Shape"></path>
  </symbol>

  <symbol id="check" viewBox="0 0 100 100">
    <path d="M80.3273289,21.8710574 C79.1419348,20.7096475 77.1977032,20.7096475 76.0115364,21.8710574 L37.7319638,59.3539533 C36.545797,60.5153632 34.6023381,60.5153632 33.4161713,59.3539533 L23.9878841,50.1232038 C22.8017173,48.961794 20.8582583,48.961794 19.6720916,50.1232038 L13.8896251,55.7880089 C12.7034583,56.9494188 12.7034583,58.8523151 13.8896251,60.0137249 L33.4161713,79.1289426 C34.6023381,80.2903525 36.545797,80.2903525 37.7319638,79.1289426 L86.1097954,31.758552 C87.2967349,30.5963855 87.2967349,28.6942458 86.1097954,27.5320794 L80.3273289,21.8710574 Z" id="Shape"></path>
  </symbol>

  <symbol id="right-arrow" viewBox="0 0 100 100">
    <path d="M37.8645153,54.7325114 L48.5026367,65.2139906 C50.7747781,67.4526756 50.7747781,71.0823012 48.5026367,73.3209862 C46.2304954,75.5596713 42.5466264,75.5596713 40.2744851,73.3209862 L19.704106,53.0534976 C18.5680353,51.9341552 18,50.4670776 18,48.9999999 C18,47.5329223 18.5680353,46.0658447 19.704106,44.9465023 L40.2744851,24.6790137 C42.5466264,22.4403288 46.2304954,22.4403288 48.5026367,24.6790137 C50.7747781,26.9176987 50.7747781,30.5473242 48.5026367,32.7860092 L37.8645153,43.2674885 L76.1818182,43.2674885 C79.395111,43.2674885 82,45.8340213 82,48.9999999 C82,52.1659786 79.395111,54.7325114 76.1818182,54.7325114 L37.8645153,54.7325114 Z" id="Shape" transform="translate(50.000000, 49.000000) scale(-1, 1) translate(-50.000000, -49.000000) "></path>
  </symbol>

  <symbol id="star" viewBox="0 0 100 100">
   <polygon id="Shape" points="50 9 64.4464197 34.5515386 93.3428553 40.3212107 73.3748019 61.8826412 76.7873606 91.00002 50 78.7741719 23.2126511 91.00002 26.6252098 61.8826412 6.65714467 40.3212107 35.5535803 34.5515386"></polygon>
  </symbol>

  <symbol id="dashboard" viewBox="0 0 100 100">
     <path d="M48.3907739,29.8295494 C41.149726,29.8295494 33.9337056,32.3824915 28.2767402,36.5532493 L31.9978422,41.7775423 C32.5636718,42.458868 32.4147251,43.6139169 31.6947286,44.1281667 C30.9747241,44.6424246 29.8388048,44.4050909 29.3830171,43.645165 L25.7876335,38.597541 C20.9728008,42.9580141 17.3563273,48.9213202 15.630043,56.4408657 L21.8402514,56.4408657 C22.6908395,56.4279566 23.4737193,57.20226 23.4737193,58.0561157 C23.4737193,58.910052 22.6908395,59.6841941 21.8402514,59.6713657 L15.0266237,59.6713657 C14.5428636,62.9153395 14.3723022,66.4124122 14.5992037,70.1704906 L41.9542851,70.0695577 C42.1891579,65.3947725 45.7158812,62.1802475 49.8993303,62.0689872 C51.0631736,62.0536577 52.1898387,62.2845691 53.2181446,62.7251725 L70.491073,49.6013873 L57.391807,66.9399906 C57.7873496,67.8837259 58.0315654,68.9310565 58.0455072,70.0695577 L85.4005969,70.1704906 C85.6274903,66.4124122 85.4580424,62.9113054 84.9731689,59.6713657 L78.1595409,59.6713657 C77.3169081,59.7108998 76.5141643,58.9777441 76.4746706,58.1318759 C76.4351365,57.2860077 77.1660412,56.4803998 78.0086901,56.4408657 C80.1148002,56.4403009 82.2528604,56.4408657 84.3697496,56.4408657 C82.6368897,48.9202714 79.0172774,42.9757318 74.1870264,38.6227703 L70.6167833,43.6451569 C70.1609875,44.4050829 69.0250682,44.6424165 68.3050717,44.1281586 C67.5850753,43.6139089 67.4361286,42.4588599 68.0019582,41.7775342 L71.6979116,36.5784786 C65.9865264,32.3849846 58.9749456,30.1472179 51.6090184,29.8399008 L51.6090184,36.3008686 C51.6218468,37.154692 50.8505851,37.940549 49.9999002,37.940549 C49.1492072,37.940549 48.378002,37.154692 48.3907739,36.3008686 C48.4455569,34.1883926 48.3907739,31.4447832 48.3907739,29.8295494 Z M49.9244708,65.2994872 C47.0145438,65.4867497 45.2597788,67.6161043 45.1725295,70.0695577 C48.3908304,70.0332509 51.6089619,70.0526145 54.8272628,70.0695577 C54.7822423,66.8950509 52.6915505,65.2622122 49.9244708,65.2994872 Z" id="Shape"></path>
  </symbol>

  <symbol id="bell" viewBox="0 0 100 100">
    <g id="Group" transform="translate(26.000000, 14.000000)">
        <path d="M28.5,71 C32.8317308,71 36.4278846,67.9666667 37,64 L20,64 C20.5721154,67.9666667 24.1682692,71 28.5,71 Z" id="Shape"></path>
        <path d="M7.41736227,30.5177419 C7.41736227,42.3629032 5.29048414,48.1209677 3,51 L52,51 C49.7095159,48.2032258 47.5826377,42.4451613 47.5826377,30.5177419 C47.5826377,17.85 40.0567613,12.6677419 34.1669449,10.5290323 C34.6577629,9.54193548 34.903172,8.47258065 34.903172,7.40322581 C34.903172,3.29032258 31.6310518,0 27.5409015,0 C23.4507513,0 20.1786311,3.29032258 20.1786311,7.40322581 C20.1786311,8.47258065 20.4240401,9.54193548 20.9148581,10.5290323 C14.9432387,12.6677419 7.41736227,17.85 7.41736227,30.5177419 Z M27.4590985,3.29032258 C29.7495826,3.29032258 31.5492487,5.1 31.5492487,7.40322581 C31.5492487,8.06129032 31.3856427,8.71935484 31.1402337,9.29516129 L32.6126878,10.0354839 C32.5308848,10.0354839 32.4490818,9.95322581 32.2854758,9.95322581 C28.3589316,8.71935484 24.6777963,9.45967742 23.2871452,9.78870968 L23.9415693,9.45967742 C23.5325543,8.8016129 23.3689482,8.14354839 23.3689482,7.40322581 C23.3689482,5.1 25.1686144,3.29032258 27.4590985,3.29032258 Z" id="Shape"></path>
        <path d="M0,56.1875 C0,58.8125 2.0682148,61 4.55007257,61 L28.2931785,61 L28.7068215,61 L52.4499274,61 C55.0145138,61 57,58.8125 57,56.1875 C57,55.4 56.8345428,54.7 56.5036284,54 L0.496371553,54 C0.165457184,54.7 0,55.4 0,56.1875 Z" id="Shape"></path>
    </g>
  </symbol>

  <symbol id="cross" viewBox="0 0 100 100">
    <path d="M50,20.0000029 C47.0762353,20.0000029 44.7058824,22.3702676 44.7058824,25.2941206 L44.7058824,44.7058853 L25.2941176,44.7058853 C22.3702647,44.7058853 20,47.0760265 20,49.9999588 C20,52.9237235 22.3702647,55.2940765 25.2941176,55.2940765 L44.7058824,55.2940765 L44.7058824,74.7059294 C44.7058824,77.6297824 47.0762353,80.0000471 50,80.0000471 C52.9239412,80.0000471 55.2941176,77.6297824 55.2941176,74.7059294 L55.2941176,55.2940765 L74.7058824,55.2940765 C77.6297353,55.2940765 80,52.9237235 80,49.9999588 C80,47.0760265 77.6297353,44.7058853 74.7058824,44.7058853 L55.2941176,44.7058853 L55.2941176,25.2941206 C55.2941176,22.3702676 52.9239412,20.0000029 50,20.0000029 Z" id="Shape" transform="translate(50.000000, 50.000025) rotate(-315.000000) translate(-50.000000, -50.000025) "></path>
  </symbol>

  <symbol id="cross--circle" viewBox="0 0 100 100">
    <path d="M50,85 C30.6700338,85 15,69.3299662 15,50 C15,30.6700338 30.6700338,15 50,15 C69.3299662,15 85,30.6700338 85,50 C85,69.3299662 69.3299662,85 50,85 Z M47.397457,50.5 L34.6425577,63.2548993 C33.7858141,64.1116429 33.7858141,65.5006987 34.6425577,66.3574423 C35.4993013,67.2141859 36.8883571,67.2141859 37.7451007,66.3574423 L50.5,53.602543 L63.2548993,66.3574423 C64.1116429,67.2141859 65.5006987,67.2141859 66.3574423,66.3574423 C67.2141859,65.5006987 67.2141859,64.1116429 66.3574423,63.2548993 L53.602543,50.5 L66.3574423,37.7451007 C67.2141859,36.8883571 67.2141859,35.4993013 66.3574423,34.6425577 C65.5006987,33.7858141 64.1116429,33.7858141 63.2548993,34.6425577 L50.5,47.397457 L37.7451007,34.6425577 C36.8883571,33.7858141 35.4993013,33.7858141 34.6425577,34.6425577 C33.7858141,35.4993013 33.7858141,36.8883571 34.6425577,37.7451007 L47.397457,50.5 Z"></path>
  </symbol>

  <symbol id="pencil" viewBox="0 0 100 100">
    <path d="M60.9746474,26.0502074 L29.5105216,57.5084553 C29.3852723,57.6346534 29.2738879,57.7738947 29.178271,57.9238005 C29.178271,57.9238005 29.1367397,58.0068696 29.1118209,58.0484041 C29.0474998,58.1602254 28.9919578,58.2768726 28.9456957,58.3972941 L28.9456957,58.4388286 L23.1479238,74.6622134 C22.8201787,75.5708237 23.0469674,76.5870084 23.7299249,77.2700187 C24.4128825,77.953029 25.4289888,78.1798352 26.337529,77.8520648 L42.5679677,72.0372315 C42.6914789,71.9886874 42.8109153,71.9303535 42.925137,71.8627865 L43.0414247,71.8046382 C43.191319,71.709014 43.3305495,71.5976209 43.4567379,71.472362 L72.2130218,42.7636996 L74.9457825,40.0307279 C77.5361285,37.5541136 78.5832049,33.869344 77.6823395,30.4005023 C76.7814741,26.9316605 74.0737924,24.2221599 70.6057545,23.3191634 C67.1377166,22.4161669 63.4526097,23.4611339 60.9746474,26.0502074 Z M29.6018905,71.3975999 L32.2931198,63.8632374 L37.1356714,68.6978559 L29.6018905,71.3975999 Z M71.4239268,36.5086004 L70.452094,37.4805082 L63.5246703,30.5525497 L64.4965031,29.5806419 C65.7206789,28.2795287 67.5558072,27.7476561 69.2859406,28.1925262 C71.016074,28.6373962 72.3670996,29.9885262 72.8119354,31.7187932 C73.2567711,33.4490602 72.7249396,35.2843301 71.4239268,36.5086004 Z" id="Shape"></path>
  </symbol>

</svg>